<?xml version="1.0" encoding="UTF-8" standalone="no"?><!-- Generator: Gravit.io --><svg xmlns="http://www.w3.org/2000/svg" xmlns:xlink="http://www.w3.org/1999/xlink" style="isolation:isolate" viewBox="0 0 64 88" width="64pt" height="88pt"><defs><clipPath id="_clipPath_KAvDqF0Ev6kg4Yj0RZmUZ8LSvIjixP4M"><rect width="64" height="88"/></clipPath></defs><g clip-path="url(#_clipPath_KAvDqF0Ev6kg4Yj0RZmUZ8LSvIjixP4M)"><clipPath id="_clipPath_tDC5NP6inp0FhE5TGFdi9OsXat0bSKFd"><rect x="0" y="0" width="64" height="88" transform="matrix(1,0,0,1,0,0)" fill="rgb(255,255,255)"/></clipPath><g clip-path="url(#_clipPath_tDC5NP6inp0FhE5TGFdi9OsXat0bSKFd)"><g><path d=" M 58 88 L 6 88 C 2.7 88 0 85.3 0 82 L 0 6 C 0 2.7 2.7 0 6 0 L 42 0 L 64 22 L 64 82 C 64 85.3 61.3 88 58 88 Z  M 17 39.5 L 29.5 39.5 L 29.5 46 L 17 46 L 17 39.5 L 17 39.5 L 17 39.5 L 17 39.5 L 17 39.5 Z  M 17 51 L 29.5 51 L 29.5 57.5 L 17 57.5 L 17 51 L 17 51 L 17 51 L 17 51 L 17 51 Z  M 47 57.5 L 34.5 57.5 L 34.5 51 L 47 51 L 47 57.5 L 47 57.5 L 47 57.5 L 47 57.5 L 47 57.5 Z  M 47 46 L 34.5 46 L 34.5 39.5 L 47 39.5 L 47 46 L 47 46 L 47 46 L 47 46 L 47 46 Z  M 12 34.5 L 12 62.5 L 52 62.5 L 52 34.5 L 12 34.5 L 12 34.5 L 12 34.5 L 12 34.5 L 12 34.5 Z " fill-rule="evenodd" fill="rgb(0,0,0)"/></g></g></g></svg>