<?xml version="1.0" encoding="UTF-8" standalone="no"?><!-- Generator: Gravit.io -->
<svg xmlns="http://www.w3.org/2000/svg"
    xmlns:xlink="http://www.w3.org/1999/xlink" style="isolation:isolate" viewBox="0 0 24 24" width="24pt" height="24pt" class="Hdh4hc cIGbvc NMm5M">
    <defs>
        <clipPath id="_clipPath_DkKwIcZOsvjRCeGn9s65jfdhqYPOjxQ7">
            <rect width="24" height="24"/>
        </clipPath>
    </defs>
    <g clip-path="url(#_clipPath_DkKwIcZOsvjRCeGn9s65jfdhqYPOjxQ7)">
        <clipPath id="_clipPath_M8tYioMwnitgAWSsPo3I7jM8eWMJakph">
            <rect x="0" y="0" width="24" height="24" transform="matrix(1,0,0,1,0,0)" fill="rgb(255,255,255)"/>
        </clipPath>
        <g clip-path="url(#_clipPath_M8tYioMwnitgAWSsPo3I7jM8eWMJakph)">
            <g>
                <path d=" M 14.077 10.154 C 13.974 10.15 12.031 10.126 10.385 10.154 C 6.34 10.213 5.521 8.044 5.462 4 L 3 4 C 3.066 8.658 3.886 11.65 7.923 12.615 L 7.923 20 L 15.308 20 L 15.308 13.846 C 16.145 15.082 16.486 16.997 16.538 20 L 19 20 C 18.94 15.412 18.193 10.185 14.077 10.162 L 14.077 10.154 Z  M 9.154 6.462 C 9.154 5.102 10.257 4 11.615 4 C 12.974 4 14.077 5.102 14.077 6.462 C 14.077 7.82 12.974 8.923 11.615 8.923 C 10.257 8.923 9.154 7.82 9.154 6.462 L 9.154 6.462 L 9.154 6.462 Z " fill-rule="evenodd"/>
            </g>
        </g>
    </g>
</svg>